<?xml version="1.0" encoding="utf-8"?>
<!-- Generator: Adobe Illustrator 25.2.1, SVG Export Plug-In . SVG Version: 6.00 Build 0)  -->
<svg version="1.1" id="Capa_1" xmlns="http://www.w3.org/2000/svg" xmlns:xlink="http://www.w3.org/1999/xlink" x="0px" y="0px"
	 viewBox="0 0 595.28 595.25" style="enable-background:new 0 0 595.28 595.25;" xml:space="preserve">
<style type="text/css">
	.st0{fill:#1D1D1B;stroke:#1D1D1B;stroke-width:0.75;stroke-miterlimit:10;}
	.st1{fill:#1D1D1B;stroke:#1D1D1B;stroke-miterlimit:10;}
	.st2{fill:none;stroke:#000000;stroke-width:2.8383;stroke-miterlimit:10;}
	.st3{fill:#1D1D1B;}
</style>
<g>
	<g>
		<path class="st0" d="M146.68,210.91l-0.53,0.89l-6.19-3.69l-4.39,7.35l6.19,3.7l-0.52,0.88l-12.58-7.51l0.52-0.88l5.58,3.34
			l4.39-7.35l-5.58-3.33l0.53-0.89L146.68,210.91z"/>
		<path class="st0" d="M155.96,197.85l-11.57-8.98l0.63-0.81l11.57,8.98L155.96,197.85z"/>
		<path class="st0" d="M165.68,171.21c1.01,0.99,1.45,2.09,1.32,3.31c-0.13,1.22-0.82,2.45-2.05,3.72l-1.58,1.62l4.33,4.23
			l-0.71,0.73l-10.48-10.24l2.51-2.57C161.45,169.51,163.67,169.25,165.68,171.21z M162.74,179.23l1.41-1.44
			c1.15-1.18,1.79-2.22,1.92-3.13c0.12-0.91-0.25-1.79-1.12-2.64c-0.81-0.79-1.65-1.12-2.52-1.01s-1.82,0.7-2.84,1.74l-1.7,1.73
			L162.74,179.23z"/>
		<path class="st0" d="M189.61,155.19c1.42,1.84,2.07,3.66,1.98,5.44c-0.1,1.78-0.96,3.29-2.58,4.54c-1.62,1.24-3.3,1.68-5.04,1.31
			s-3.33-1.48-4.75-3.33c-1.42-1.85-2.07-3.66-1.96-5.44c0.11-1.78,0.98-3.28,2.59-4.52c1.62-1.24,3.3-1.68,5.04-1.32
			C186.61,152.23,188.19,153.34,189.61,155.19z M180.1,162.48c1.28,1.66,2.64,2.67,4.08,3c1.44,0.34,2.85-0.02,4.24-1.09
			c1.4-1.07,2.12-2.34,2.17-3.81c0.05-1.47-0.57-3.04-1.86-4.72c-1.29-1.67-2.64-2.67-4.07-3c-1.42-0.33-2.83,0.04-4.22,1.11
			c-1.38,1.06-2.1,2.33-2.16,3.81C178.22,159.26,178.83,160.83,180.1,162.48z"/>
		<path class="st0" d="M205.49,137.6c-1.6,0.9-2.58,2.12-2.93,3.66c-0.35,1.54-0.02,3.21,0.97,4.99c1.02,1.83,2.25,3,3.68,3.52
			c1.43,0.52,2.96,0.33,4.57-0.57c1.07-0.6,1.98-1.29,2.73-2.06l0.44,0.79c-0.68,0.77-1.65,1.51-2.92,2.22
			c-1.8,1-3.53,1.21-5.21,0.63c-1.68-0.58-3.1-1.92-4.27-4c-0.73-1.3-1.12-2.58-1.18-3.85c-0.06-1.27,0.22-2.43,0.84-3.48
			c0.62-1.06,1.55-1.93,2.77-2.61c1.25-0.7,2.5-1.09,3.74-1.17l0.09,1C207.63,136.71,206.52,137.02,205.49,137.6z"/>
		<path class="st0" d="M227.41,135.49l2.33,5.94l-0.95,0.37l-5.35-13.64l3.25-1.27c1.69-0.66,3.06-0.84,4.12-0.53
			c1.05,0.31,1.83,1.09,2.32,2.35c0.36,0.92,0.42,1.78,0.18,2.6c-0.24,0.82-0.79,1.55-1.67,2.21l6.14,4.76l-1.14,0.45l-5.85-4.56
			L227.41,135.49z M227.09,134.67l2.6-1.02c1.15-0.45,1.94-1.06,2.38-1.82c0.43-0.76,0.45-1.64,0.06-2.64
			c-0.41-1.04-1.01-1.67-1.82-1.9c-0.81-0.23-1.91-0.07-3.32,0.48l-2.26,0.88L227.09,134.67z"/>
		<path class="st0" d="M257.16,127.36l-5.79,1.4l-0.77,5.51l-1.1,0.27l2.26-15.69l0.63-0.15l9.08,12.94l-1.12,0.27L257.16,127.36z
			 M251.52,127.78l5.09-1.24l-3.18-4.66c-0.26-0.36-0.59-0.87-0.99-1.53c-0.02,0.67-0.08,1.28-0.16,1.83L251.52,127.78z"/>
		<path class="st0" d="M282.86,124.82c0.13,1.22-0.21,2.23-1.03,3.03c-0.82,0.81-1.97,1.29-3.45,1.45
			c-1.78,0.19-3.17,0.14-4.16-0.15l-0.11-1.02c1.1,0.33,2.46,0.41,4.09,0.24c1.2-0.13,2.11-0.5,2.76-1.12
			c0.64-0.62,0.92-1.38,0.82-2.27c-0.06-0.55-0.22-1-0.49-1.33c-0.27-0.34-0.69-0.63-1.24-0.87s-1.36-0.48-2.41-0.72
			c-1.54-0.35-2.63-0.8-3.26-1.33s-1-1.3-1.1-2.29c-0.12-1.09,0.22-2.02,1-2.8c0.78-0.78,1.84-1.24,3.18-1.38
			c1.37-0.15,2.68-0.02,3.94,0.37l-0.28,0.92c-1.26-0.38-2.45-0.51-3.55-0.39c-1.08,0.11-1.91,0.45-2.49,1.02
			c-0.58,0.57-0.83,1.28-0.74,2.13c0.06,0.54,0.2,0.97,0.44,1.29c0.23,0.32,0.59,0.6,1.06,0.83s1.27,0.48,2.4,0.75
			c1.18,0.27,2.07,0.56,2.68,0.87c0.61,0.31,1.07,0.68,1.38,1.12S282.79,124.16,282.86,124.82z"/>
		<path class="st0" d="M323.34,115.76c-1.82-0.22-3.33,0.19-4.52,1.23s-1.91,2.57-2.15,4.6c-0.25,2.08,0.05,3.75,0.89,5.01
			c0.85,1.27,2.19,2.01,4.03,2.24c1.22,0.15,2.36,0.13,3.42-0.06l-0.11,0.89c-1,0.22-2.22,0.25-3.66,0.07
			c-2.04-0.25-3.57-1.1-4.58-2.57c-1.01-1.46-1.38-3.38-1.09-5.75c0.18-1.48,0.62-2.75,1.32-3.81s1.61-1.83,2.73-2.32
			c1.13-0.49,2.39-0.64,3.78-0.47c1.42,0.17,2.66,0.59,3.71,1.26l-0.52,0.87C325.59,116.3,324.5,115.9,323.34,115.76z"/>
		<path class="st0" d="M347.82,129.7l-5.76-1.52l-3.29,4.48l-1.09-0.29l9.44-12.73l0.63,0.17l1.84,15.7l-1.11-0.29L347.82,129.7z
			 M342.65,127.38l5.07,1.33l-0.58-5.61c-0.06-0.44-0.1-1.05-0.14-1.82c-0.34,0.57-0.68,1.09-1.02,1.54L342.65,127.38z"/>
		<path class="st0" d="M366.27,141.56l-0.96-0.39l5.19-12.67l-4.4-1.81l0.36-0.89l9.76,4l-0.36,0.89l-4.4-1.8L366.27,141.56z"/>
		<path class="st0" d="M390.19,153.57l-6.96-3.96l7.25-12.73l6.96,3.96l-0.47,0.82l-6.07-3.45l-2.74,4.82l5.73,3.26l-0.47,0.82
			l-5.73-3.26l-3.11,5.46l6.07,3.45L390.19,153.57z"/>
		<path class="st0" d="M407.51,157.47l-3.86,5.09l-0.81-0.62l8.85-11.67l2.78,2.11c1.45,1.1,2.31,2.18,2.6,3.24
			c0.29,1.06,0.02,2.13-0.79,3.2c-0.59,0.78-1.3,1.29-2.12,1.51s-1.74,0.14-2.76-0.27l-0.86,7.72l-0.97-0.74l0.85-7.37
			L407.51,157.47z M408.04,156.76l2.23,1.69c0.99,0.75,1.92,1.11,2.79,1.08s1.64-0.47,2.29-1.33c0.67-0.89,0.9-1.74,0.67-2.55
			c-0.23-0.81-0.94-1.67-2.14-2.58l-1.93-1.46L408.04,156.76z"/>
		<path class="st0" d="M421.31,177.35l10.13-10.59l0.74,0.71l-10.12,10.59L421.31,177.35z"/>
		<path class="st0" d="M439.91,197.86l-0.65-0.8l4.56-14.96l-0.05-0.06c-1.15,1.04-2.03,1.82-2.64,2.32l-7.35,6.02l-0.62-0.76
			l11.33-9.29l0.65,0.79l-4.55,14.94l0.04,0.05c0.89-0.81,1.76-1.56,2.59-2.24l7.39-6.06l0.63,0.77L439.91,197.86z"/>
		<path class="st0" d="M458.37,212.06l2.77,4.64l-5.74,3.43c-1.24-0.91-2.32-2.12-3.22-3.64c-1.19-1.98-1.53-3.84-1.04-5.57
			c0.49-1.73,1.76-3.21,3.82-4.43c1.28-0.76,2.57-1.18,3.87-1.25c1.3-0.07,2.52,0.23,3.64,0.89c1.12,0.66,2.06,1.62,2.82,2.88
			c0.82,1.37,1.3,2.75,1.45,4.14l-1,0.12c-0.15-1.39-0.57-2.67-1.27-3.84c-0.99-1.66-2.29-2.67-3.89-3.03s-3.28-0.02-5.01,1.02
			c-1.89,1.13-3.04,2.44-3.45,3.94c-0.4,1.49-0.07,3.14,1,4.92c0.69,1.16,1.44,2.04,2.25,2.66l4.42-2.64l-2.24-3.74L458.37,212.06z"
			/>
	</g>
	<g>
		<g>
			<path class="st1" d="M216.62,465.23c0.7,0.37,1.23,0.82,1.6,1.34c0.37,0.52,0.6,1.2,0.67,2.02l0.05,0.03
				c0.36-0.76,0.73-1.5,1.11-2.21l1.83-3.46l0.87,0.46l-7.31,13.78l-0.58-0.31l0.56-1.59l-0.07-0.04c-1.31,0.71-2.66,0.7-4.03-0.03
				c-1.33-0.7-2.12-1.66-2.39-2.85c-0.26-1.2,0.02-2.59,0.86-4.17c0.88-1.66,1.91-2.75,3.07-3.26
				C214.05,464.43,215.29,464.52,216.62,465.23z M216.2,466.03c-1.05-0.56-2.04-0.61-2.96-0.15c-0.92,0.46-1.75,1.39-2.5,2.79
				c-1.45,2.73-1.11,4.65,1.01,5.78c1.09,0.58,2.05,0.68,2.89,0.32c0.84-0.36,1.65-1.27,2.42-2.72l0.08-0.15
				c0.79-1.49,1.11-2.69,0.95-3.61C217.95,467.37,217.32,466.62,216.2,466.03z"/>
			<path class="st1" d="M231.22,484.33c-1.47-0.58-2.45-1.48-2.91-2.71c-0.47-1.23-0.38-2.67,0.26-4.3
				c0.63-1.62,1.54-2.76,2.72-3.42s2.44-0.73,3.79-0.2c1.19,0.47,1.97,1.25,2.34,2.36c0.36,1.1,0.27,2.37-0.29,3.8l-0.29,0.75
				l-7.31-2.86c-0.53,1.4-0.62,2.59-0.27,3.57c0.35,0.98,1.12,1.71,2.31,2.17c0.58,0.23,1.1,0.38,1.57,0.48
				c0.47,0.09,1.09,0.13,1.87,0.13l-0.33,0.84c-0.67,0.02-1.26-0.01-1.79-0.11S231.81,484.56,231.22,484.33z M234.75,474.52
				c-0.98-0.38-1.89-0.37-2.73,0.04s-1.55,1.21-2.13,2.38l6.27,2.46c0.46-1.18,0.57-2.2,0.31-3.06S235.65,474.87,234.75,474.52z"/>
			<path class="st1" d="M253.77,488.35c-0.26,0.94-0.81,1.57-1.66,1.88c-0.85,0.31-1.94,0.29-3.25-0.07
				c-1.41-0.38-2.46-0.9-3.17-1.56l0.28-1.03c0.91,0.82,1.96,1.38,3.13,1.7c1.04,0.28,1.87,0.33,2.5,0.13
				c0.63-0.2,1.03-0.58,1.18-1.16c0.14-0.53,0.05-1.03-0.28-1.51c-0.33-0.48-0.94-1.02-1.82-1.64c-0.95-0.67-1.6-1.19-1.95-1.58
				c-0.35-0.39-0.59-0.79-0.71-1.19s-0.12-0.85,0.02-1.35c0.21-0.79,0.71-1.32,1.5-1.6c0.79-0.28,1.77-0.25,2.96,0.07
				c1.13,0.31,2.15,0.82,3.06,1.52l-0.59,0.77c-0.92-0.71-1.82-1.18-2.7-1.42c-0.86-0.23-1.58-0.28-2.16-0.13
				c-0.58,0.15-0.94,0.47-1.08,0.97c-0.15,0.55-0.07,1.04,0.23,1.47c0.3,0.43,0.96,1.01,1.99,1.72c0.85,0.6,1.46,1.1,1.82,1.49
				c0.36,0.39,0.6,0.79,0.72,1.2S253.89,487.88,253.77,488.35z"/>
			<path class="st1" d="M270.43,483.28c0.78,0.12,1.43,0.37,1.95,0.74c0.52,0.37,0.95,0.94,1.29,1.7l0.06,0.01
				c0.09-0.84,0.2-1.66,0.33-2.46l0.61-3.87l0.97,0.15l-2.42,15.4l-0.64-0.1l0.01-1.68l-0.08-0.01c-1.01,1.1-2.28,1.53-3.81,1.29
				c-1.49-0.23-2.55-0.87-3.19-1.92c-0.64-1.05-0.82-2.46-0.54-4.22c0.29-1.86,0.91-3.22,1.84-4.08S268.95,483.04,270.43,483.28z
				 M270.29,484.17c-1.17-0.18-2.12,0.09-2.84,0.82c-0.72,0.73-1.21,1.88-1.45,3.45c-0.48,3.05,0.46,4.76,2.83,5.13
				c1.21,0.19,2.16-0.02,2.84-0.64c0.68-0.62,1.15-1.74,1.4-3.36l0.03-0.17c0.26-1.66,0.17-2.9-0.27-3.72
				C272.38,484.87,271.54,484.36,270.29,484.17z"/>
			<path class="st1" d="M290.45,496.6c-1.58-0.07-2.79-0.61-3.64-1.62c-0.84-1.01-1.23-2.4-1.15-4.15c0.07-1.74,0.56-3.11,1.46-4.12
				c0.9-1.01,2.07-1.48,3.52-1.42c1.28,0.05,2.27,0.54,2.98,1.47c0.7,0.93,1.02,2.16,0.96,3.69l-0.03,0.8l-7.84-0.33
				c-0.05,1.5,0.25,2.65,0.9,3.47c0.65,0.82,1.61,1.25,2.89,1.31c0.62,0.03,1.17,0.01,1.64-0.06c0.47-0.07,1.08-0.23,1.81-0.48
				l-0.04,0.9c-0.62,0.24-1.2,0.4-1.72,0.47C291.66,496.6,291.08,496.62,290.45,496.6z M290.61,486.17
				c-1.05-0.04-1.9,0.26-2.57,0.93c-0.66,0.66-1.08,1.64-1.24,2.94l6.73,0.29c0.05-1.26-0.18-2.26-0.69-2.99
				C292.32,486.6,291.58,486.21,290.61,486.17z"/>
			<path class="st1" d="M325.67,494.46l-0.97,0.14l-1.54-10.56c-0.14-0.96-0.25-1.96-0.32-3c-0.08,0.11-0.17,0.22-0.27,0.33
				c-0.09,0.11-1,1.06-2.71,2.86l-0.67-0.62l3.51-3.52l0.85-0.12L325.67,494.46z"/>
			<path class="st1" d="M347.45,481.08c0.49,1.86,0.66,3.48,0.51,4.86s-0.62,2.5-1.39,3.34c-0.77,0.85-1.82,1.45-3.15,1.8
				c-0.67,0.18-1.31,0.26-1.93,0.24l-0.22-0.83c0.3,0.02,0.65,0,1.06-0.06c0.4-0.05,0.71-0.11,0.92-0.17
				c1.59-0.42,2.69-1.33,3.29-2.72s0.66-3.21,0.17-5.44l-0.12,0.03c-0.31,0.75-0.74,1.37-1.31,1.88c-0.56,0.51-1.2,0.85-1.91,1.04
				c-1.31,0.35-2.43,0.26-3.35-0.27c-0.92-0.53-1.56-1.46-1.92-2.79c-0.38-1.42-0.28-2.68,0.29-3.77c0.57-1.09,1.5-1.81,2.78-2.15
				c0.93-0.25,1.81-0.22,2.64,0.08c0.83,0.3,1.55,0.88,2.18,1.72S347.1,479.79,347.45,481.08z M341.4,476.93
				c-1.02,0.27-1.74,0.83-2.17,1.68c-0.42,0.85-0.48,1.87-0.16,3.07c0.3,1.12,0.8,1.9,1.52,2.33c0.72,0.43,1.6,0.51,2.64,0.23
				c0.65-0.17,1.22-0.48,1.71-0.92s0.83-0.95,1.04-1.51c0.21-0.57,0.24-1.1,0.11-1.6c-0.2-0.76-0.54-1.42-1.01-2
				c-0.48-0.58-1.03-0.98-1.67-1.21C342.77,476.77,342.1,476.75,341.4,476.93z"/>
			<path class="st1" d="M366.27,474.37c0.7,1.79,1.06,3.38,1.06,4.77c0,1.39-0.33,2.55-1,3.48c-0.67,0.93-1.64,1.65-2.92,2.15
				c-0.65,0.25-1.28,0.41-1.89,0.46l-0.32-0.8c0.3-0.02,0.65-0.08,1.04-0.18c0.39-0.1,0.69-0.19,0.89-0.27
				c1.54-0.6,2.52-1.63,2.96-3.08c0.44-1.45,0.29-3.26-0.45-5.43l-0.11,0.04c-0.22,0.78-0.58,1.45-1.08,2.01
				c-0.5,0.57-1.1,0.98-1.78,1.25c-1.26,0.5-2.38,0.53-3.36,0.11c-0.98-0.42-1.72-1.27-2.22-2.55c-0.54-1.37-0.58-2.63-0.14-3.78
				s1.28-1.97,2.52-2.45c0.9-0.35,1.77-0.42,2.63-0.22c0.86,0.21,1.64,0.69,2.36,1.46C365.18,472.12,365.79,473.13,366.27,474.37z
				 M359.79,470.94c-0.98,0.39-1.64,1.02-1.96,1.92c-0.32,0.89-0.26,1.91,0.19,3.06c0.42,1.08,1.02,1.8,1.78,2.14
				c0.76,0.35,1.65,0.32,2.65-0.07c0.63-0.25,1.16-0.62,1.59-1.11c0.43-0.49,0.72-1.04,0.86-1.62s0.11-1.12-0.07-1.6
				c-0.29-0.73-0.7-1.35-1.24-1.87c-0.54-0.52-1.14-0.86-1.8-1.01C361.14,470.62,360.47,470.67,359.79,470.94z"/>
			<path class="st1" d="M387.34,469.21l-2.23,1.18l1.75,3.3l-0.83,0.44l-1.75-3.3l-6.66,3.54l-0.32-0.59l1.58-12.52l1.07-0.57
				l4.75,8.95l2.23-1.18L387.34,469.21z M383.87,470.08l-1.96-3.7c-0.95-1.78-1.7-3.3-2.26-4.55l-0.07,0.04
				c0,0.28-0.07,1.03-0.21,2.24l-1.1,8.95L383.87,470.08z"/>
		</g>
	</g>
	<path class="st2" d="M169.24,439.11c-34.3-33.46-55.6-80.19-55.6-131.9c0-17.88,2.55-35.16,7.3-51.51"/>
	<path class="st2" d="M474.65,255.07c4.87,16.53,7.48,34.03,7.48,52.14c0,51.75-21.34,98.52-55.69,131.99"/>
	<path d="M412.43,206.34c1.96-2.67,2.94-4.63,2.94-5.88c0-0.89-0.89-1.34-2.67-1.34l-2.14,0.27c-1.96,0-10.82,11.75-26.58,35.26
		c-13.56,20.23-28.45,43.83-44.65,70.79c-4.47-1.45-9.54-2.76-15.22-3.93c-13.49-3.13-33.75-3.47-34.46-3.47
		c-10.19,0-20.94,0.76-32.24,2.27l1.68-2.61c0,0,31.79-47.28,46.22-66.52c1.96-2.67,2.94-4.63,2.94-5.88c0-0.89-0.8-1.34-2.4-1.34
		l-2.4,0.27c-3.03,0-51.56,73.2-51.56,73.2l-2.59,4.09c-1.06,0.17-2.11,0.33-3.18,0.52c-25.83,4.63-44.08,12.29-54.76,22.98
		c-7.3,7.3-10.95,14.78-10.95,22.44c0,7.84,3.83,14.69,11.49,20.57l2.4,0.8c1.42,0,1.6-0.35,0.53-1.07
		c-3.56-2.85-5.34-5.88-5.34-9.08c0-3.21,1.51-6.68,4.54-10.42c7.32-8.5,20.42-15.37,39.28-20.61
		c-12.61,22.11-43.66,77.28-43.66,84.38c0,1.78,0.4,2.67,1.2,2.67s1.65-0.98,2.54-2.94c7-16.59,36.68-66.98,48.11-86.2
		c4.55-1.06,9.38-2.05,14.5-2.95c4.81-0.89,20.32-3.29,22.71-3.47c6.71,0,16.8-2.14,35-2.14c2.39,0,12.61,0.23,18.31,0.7
		c-0.22,0.37-0.44,0.73-0.66,1.1c-19.33,32.59-28.98,52.54-28.98,59.84c0,1.42,0.09,2.4,0.27,2.94c0.89,1.6,2.05,0.89,3.47-2.14
		c6.57-15.53,17.32-35.91,32.19-61.11c14.57,1.7,22.68,4.55,24.28,8.55c0.36,0.89,0.71,1.34,1.07,1.34c0.35,0,0.53-0.35,0.53-1.07
		c0-8.05-6.46-14.63-19.36-19.75c2.12-3.52,4.3-7.09,6.57-10.78C373.2,261.19,393.55,231.09,412.43,206.34z"/>
	<circle class="st3" cx="406.17" cy="454.87" r="1.87"/>
	<circle class="st3" cx="187.76" cy="454.87" r="1.87"/>
</g>
</svg>
